<svg width="51" height="50" viewBox="0 0 51 50" fill="none" xmlns="http://www.w3.org/2000/svg">
<path d="M25.5 45.8337C37.0059 45.8337 46.3333 36.5063 46.3333 25.0003C46.3333 13.4944 37.0059 4.16699 25.5 4.16699C13.994 4.16699 4.66663 13.4944 4.66663 25.0003C4.66663 36.5063 13.994 45.8337 25.5 45.8337Z" stroke="#072B46" stroke-width="2" stroke-linecap="round" stroke-linejoin="round"/>
<path d="M33.8333 16.667H21.3333C20.2282 16.667 19.1684 17.106 18.387 17.8874C17.6056 18.6688 17.1666 19.7286 17.1666 20.8337C17.1666 21.9387 17.6056 22.9985 18.387 23.7799C19.1684 24.5613 20.2282 25.0003 21.3333 25.0003H29.6666C30.7717 25.0003 31.8315 25.4393 32.6129 26.2207C33.3943 27.0021 33.8333 28.0619 33.8333 29.167C33.8333 30.2721 33.3943 31.3319 32.6129 32.1133C31.8315 32.8947 30.7717 33.3337 29.6666 33.3337H17.1666" stroke="#072B46" stroke-width="2" stroke-linecap="round" stroke-linejoin="round"/>
<path d="M25.5 37.5V12.5" stroke="#072B46" stroke-width="2" stroke-linecap="round" stroke-linejoin="round"/>
</svg>
